<?xml version="1.0" encoding="UTF-8"?>
<svg width="12px" height="12px" viewBox="0 0 12 12" version="1.1" xmlns="http://www.w3.org/2000/svg" xmlns:xlink="http://www.w3.org/1999/xlink">
    <!-- Generator: Sketch 44.1 (41455) - http://www.bohemiancoding.com/sketch -->
    <title>已阅读</title>
    <desc>Created with Sketch.</desc>
    <defs></defs>
    <g id="Page-1" stroke="none" stroke-width="1" fill="none" fill-rule="evenodd">
        <g id="夺宝icon" transform="translate(-160.000000, -148.000000)" fill="#999999">
            <g id="已阅读" transform="translate(160.000000, 148.000000)">
                <path d="M6,11.5 C2.96243388,11.5 0.5,9.03756612 0.5,6 C0.5,2.96243388 2.96243388,0.5 6,0.5 C9.03756612,0.5 11.5,2.96243388 11.5,6 C11.5,9.03756612 9.03756612,11.5 6,11.5 Z M6,10.5 C8.48528137,10.5 10.5,8.48528137 10.5,6 C10.5,3.51471863 8.48528137,1.5 6,1.5 C3.51471863,1.5 1.5,3.51471863 1.5,6 C1.5,8.48528137 3.51471863,10.5 6,10.5 Z" id="Oval-12" fill-rule="nonzero"></path>
                <g id="Group" transform="translate(3.421509, 3.496460)">
                    <path d="M2.08102755,2.99295458 L1.00396341,1.91589044 C0.80623063,1.71815766 0.495379257,1.72388878 0.300117111,1.91915092 C0.110565538,2.1087025 0.103395199,2.42953579 0.296856631,2.62299723 L1.70469149,4.03083209 C1.71174761,4.03884107 1.71910241,4.04667959 1.72675587,4.05433305 C1.91630744,4.24388462 2.23759138,4.25060431 2.43160871,4.05658698 L5.3927984,1.0953973 C5.58666943,0.901526263 5.5858066,0.585806602 5.39054446,0.390544457 C5.20099288,0.200992883 4.87970894,0.194273188 4.68569161,0.388290518 L2.08102755,2.99295458 Z" id="Combined-Shape"></path>
                </g>
            </g>
        </g>
    </g>
</svg>