<?xml version="1.0" encoding="UTF-8"?>
<svg width="24px" height="24px" viewBox="0 0 24 24" version="1.1" xmlns="http://www.w3.org/2000/svg" xmlns:xlink="http://www.w3.org/1999/xlink">
    <!-- Generator: Sketch 44.1 (41455) - http://www.bohemiancoding.com/sketch -->
    <title>开奖</title>
    <desc>Created with Sketch.</desc>
    <defs></defs>
    <g id="Page-1" stroke="none" stroke-width="1" fill="none" fill-rule="evenodd">
        <g id="夺宝icon" transform="translate(-108.000000, -20.000000)">
            <g id="开奖" transform="translate(108.000000, 20.000000)">
                <rect id="Rectangle-8-Copy-2" fill-opacity="0" fill="#D8B8B8" x="0" y="0" width="24" height="24"></rect>
                <g transform="translate(3.000000, 2.000000)" id="Combined-Shape" fill="#666666">
                    <path d="M2.21764706,1.15555556 L2.21764706,17.7324822 C2.88700666,17.2477035 3.82816045,17.3115135 4.42533122,17.9187607 L5.30882353,18.8171606 L6.19231584,17.9187607 C6.88185086,17.2403337 7.95819365,17.2493386 8.61650769,17.9187607 L9.5,18.8171606 L10.3834923,17.9187607 C11.0730273,17.2403337 12.1493701,17.2493386 12.8076842,17.9187607 L13.6911765,18.8171606 L14.5746688,17.9187607 C15.1950454,17.3083445 16.1224946,17.2546003 16.7823529,17.7324392 L16.7823529,1.15555556 L2.21764706,1.15555556 Z M17.8823529,1.1455127 L17.8823529,19.1644407 C17.8823529,19.4405831 17.6584953,19.6644407 17.3823529,19.6644407 C17.2482946,19.6644407 17.1198514,19.6106073 17.0258541,19.515024 L16.2145633,18.6900438 C15.9822171,18.4537772 15.6023314,18.450599 15.3660648,18.6829451 C15.3644742,18.6845094 14.9487776,19.1071803 14.118975,19.9509579 C13.8866289,20.1872245 13.5067432,20.1904027 13.2704766,19.9580566 C13.2688859,19.9564923 12.8531893,19.5338214 12.0233868,18.6900438 C11.7910407,18.4537772 11.411155,18.450599 11.1748884,18.6829451 C11.1732977,18.6845094 10.7576011,19.1071803 9.92779856,19.9509579 C9.69545243,20.1872245 9.31556674,20.1904027 9.07930012,19.9580566 C9.07770946,19.9564923 8.66201287,19.5338214 7.83221033,18.6900438 C7.5998642,18.4537772 7.2199785,18.450599 6.98371188,18.6829451 C6.98212123,18.6845094 6.56642463,19.1071803 5.73662209,19.9509579 C5.50427596,20.1872245 5.12439027,20.1904027 4.88812365,19.9580566 C4.88653299,19.9564923 4.4708364,19.5338214 3.64103386,18.6900438 C3.40868773,18.4537772 3.02880203,18.450599 2.79253541,18.6829451 C2.79094476,18.6845094 2.51814824,18.961869 1.97414586,19.515024 C1.78052409,19.7119128 1.46395267,19.7145613 1.26706382,19.5209395 C1.17148054,19.4269423 1.11764706,19.2984991 1.11764706,19.1644407 L1.11764706,1.1455127 L0.746516608,1.1455127 C0.470374233,1.1455127 0.246516608,0.921655078 0.246516608,0.645512703 L0.246516608,0.545512679 L0.246516608,0.545512679 C0.246516608,0.269370304 0.470374233,0.0455126794 0.746516608,0.0455126794 L0.746516608,0.0455126794 L18.2187388,0.0455126794 C18.4948812,0.0455126794 18.7187388,0.269370304 18.7187388,0.545512679 L18.7187388,0.645512703 C18.7187388,0.921655078 18.4948812,1.1455127 18.2187388,1.1455127 L17.8823529,1.1455127 Z" fill-rule="nonzero"></path>
                    <path d="M5.02058825,4.58823529 L13.9794118,4.58823529 L13.9794118,4.58823529 C14.2831684,4.58823529 14.5294118,4.83447869 14.5294118,5.13823531 L14.5294118,5.13823531 C14.5294118,5.44199193 14.2831684,5.68823532 13.9794118,5.68823532 L5.02058825,5.68823532 L5.02058825,5.68823532 C4.71683163,5.68823532 4.47058824,5.44199193 4.47058824,5.13823531 L4.47058824,5.13823531 L4.47058824,5.13823531 C4.47058824,4.83447869 4.71683163,4.58823529 5.02058825,4.58823529 L5.02058825,4.58823529 Z M5.02058825,9.05882353 L11.7441176,9.05882353 C12.0478743,9.05882353 12.2941176,9.30506692 12.2941176,9.60882354 C12.2941176,9.91258016 12.0478743,10.1588236 11.7441176,10.1588236 L5.02058825,10.1588236 C4.71683163,10.1588236 4.47058824,9.91258016 4.47058824,9.60882354 C4.47058824,9.30506692 4.71683163,9.05882353 5.02058825,9.05882353 L5.02058825,9.05882353 Z M5.02058825,13.5294118 L9.50882352,13.5294118 L9.50882352,13.5294118 C9.81258014,13.5294118 10.0588235,13.7756552 10.0588235,14.0794118 C10.0588235,14.3831684 9.81258014,14.6294118 9.50882352,14.6294118 L5.02058825,14.6294118 C4.71683163,14.6294118 4.47058824,14.3831684 4.47058824,14.0794118 C4.47058824,13.7756552 4.71683163,13.5294118 5.02058825,13.5294118 L5.02058825,13.5294118 Z"></path>
                </g>
            </g>
        </g>
    </g>
</svg>