<?xml version="1.0" encoding="UTF-8"?>
<svg width="24px" height="24px" viewBox="0 0 24 24" version="1.1" xmlns="http://www.w3.org/2000/svg" xmlns:xlink="http://www.w3.org/1999/xlink">
    <!-- Generator: Sketch 44.1 (41455) - http://www.bohemiancoding.com/sketch -->
    <title>开奖fill</title>
    <desc>Created with Sketch.</desc>
    <defs>
        <linearGradient x1="6.44478556%" y1="95.916306%" x2="97.9027373%" y2="2.21141673%" id="linearGradient-1">
            <stop stop-color="#F67361" offset="0%"></stop>
            <stop stop-color="#F7504E" offset="100%"></stop>
        </linearGradient>
    </defs>
    <g id="Page-1" stroke="none" stroke-width="1" fill="none" fill-rule="evenodd">
        <g id="夺宝icon" transform="translate(-108.000000, -64.000000)">
            <g id="开奖fill" transform="translate(108.000000, 64.000000)">
                <g id="Rectangle-8-Copy-7" fill="#D8B8B8" fill-opacity="0">
                    <rect x="0" y="0" width="24" height="24"></rect>
                </g>
                <g transform="translate(3.000000, 2.000000)">
                    <path d="M17.8823529,1.1455127 L17.8823529,19.1644407 C17.8823529,19.4405831 17.6584953,19.6644407 17.3823529,19.6644407 C17.2482946,19.6644407 17.1198514,19.6106073 17.0258541,19.515024 L16.2145633,18.6900438 C15.9822171,18.4537772 15.6023314,18.450599 15.3660648,18.6829451 C15.3636788,18.6852915 15.3613125,18.6876578 15.3589661,18.6900438 L14.118975,19.9509579 C13.8866289,20.1872245 13.5067432,20.1904027 13.2704766,19.9580566 C13.2680906,19.9557102 13.2657243,19.9533439 13.2633779,19.9509579 L12.0233868,18.6900438 C11.7910407,18.4537772 11.411155,18.450599 11.1748884,18.6829451 C11.1725024,18.6852915 11.1701361,18.6876578 11.1677897,18.6900438 L9.92779856,19.9509579 L9.92779856,19.9509579 C9.69545243,20.1872245 9.31556674,20.1904027 9.07930012,19.9580566 C9.07691414,19.9557102 9.07454783,19.9533439 9.07220144,19.9509579 L7.83221033,18.6900438 L7.83221033,18.6900438 C7.5998642,18.4537772 7.2199785,18.450599 6.98371188,18.6829451 C6.9813259,18.6852915 6.97895959,18.6876578 6.9766132,18.6900438 L5.73662209,19.9509579 L5.73662209,19.9509579 C5.50427596,20.1872245 5.12439027,20.1904027 4.88812365,19.9580566 C4.88573767,19.9557102 4.88337136,19.9533439 4.88102497,19.9509579 L3.64103386,18.6900438 L3.64103386,18.6900438 C3.40868773,18.4537772 3.02880203,18.450599 2.79253541,18.6829451 C2.79014943,18.6852915 2.78778312,18.6876578 2.78543673,18.6900438 L1.97414586,19.515024 L1.97414586,19.515024 C1.78052409,19.7119128 1.46395267,19.7145613 1.26706382,19.5209395 C1.17148054,19.4269423 1.11764706,19.2984991 1.11764706,19.1644407 L1.11764706,1.1455127 L0.746516608,1.1455127 C0.470374233,1.1455127 0.246516608,0.921655078 0.246516608,0.645512703 L0.246516608,0.545512679 L0.246516608,0.545512679 C0.246516608,0.269370304 0.470374233,0.0455126794 0.746516608,0.0455126794 L0.746516608,0.0455126794 L18.2187388,0.0455126794 C18.4948812,0.0455126794 18.7187388,0.269370304 18.7187388,0.545512679 L18.7187388,0.645512703 C18.7187388,0.921655078 18.4948812,1.1455127 18.2187388,1.1455127 L17.8823529,1.1455127 Z" id="Combined-Shape" fill="url(#linearGradient-1)"></path>
                    <rect id="Rectangle-21" fill="#FFFFFF" x="4.47058824" y="4.58823529" width="10.0588235" height="1.10000002" rx="0.550000012"></rect>
                    <rect id="Rectangle-21-Copy" fill="#FFFFFF" x="4.47058824" y="9.05882353" width="7.82352941" height="1.10000002" rx="0.550000012"></rect>
                    <rect id="Rectangle-21-Copy-2" fill="#FFFFFF" x="4.47058824" y="13.5294118" width="5.58823529" height="1.10000002" rx="0.550000012"></rect>
                </g>
            </g>
        </g>
    </g>
</svg>