<?xml version="1.0" encoding="UTF-8"?>
<svg width="24px" height="24px" viewBox="0 0 24 24" version="1.1" xmlns="http://www.w3.org/2000/svg" xmlns:xlink="http://www.w3.org/1999/xlink">
    <!-- Generator: Sketch 44.1 (41455) - http://www.bohemiancoding.com/sketch -->
    <title>我的</title>
    <desc>Created with Sketch.</desc>
    <defs></defs>
    <g id="Page-1" stroke="none" stroke-width="1" fill="none" fill-rule="evenodd">
        <g id="夺宝icon" transform="translate(-152.000000, -20.000000)">
            <g id="我的" transform="translate(152.000000, 20.000000)">
                <rect id="Rectangle-8-Copy-3" fill-opacity="0" fill="#D8B8B8" x="0" y="0" width="24" height="24"></rect>
                <path d="M14.2959967,12.6922596 C14.7078631,12.461786 15.090526,12.1732231 15.4334114,11.830315 C16.4104,10.8533264 16.9484517,9.5543509 16.9484517,8.17268897 C16.9484517,6.79102704 16.4104,5.49202888 15.4334114,4.51504028 C14.4564002,3.53805168 13.1574247,3 11.7757628,3 C10.3941008,3 9.09510266,3.5380517 8.11811406,4.51504028 C7.14110277,5.49202888 6.60305107,6.79100436 6.60305107,8.17268897 C6.60305107,9.55437358 7.14110277,10.8533491 8.11811406,11.830315 C8.46099948,12.1732004 8.84366243,12.461786 9.25552884,12.6922369 C5.95642242,13.6737184 3.43110567,16.5337517 3.0040816,20.0999552 C2.96682279,20.4110277 3.18880997,20.6933959 3.49990514,20.7306547 C3.8110457,20.7680043 4.09334583,20.5459264 4.13060465,20.2348539 C4.59304954,16.372849 7.87976661,13.4605127 11.7757628,13.4605127 C15.6717589,13.4605127 18.958476,16.3728491 19.4209436,20.2348539 C19.4554568,20.5230311 19.7003166,20.7347392 19.983479,20.7347392 C20.0059658,20.7347165 20.0287251,20.7333777 20.0516431,20.7306321 C20.3627156,20.6933733 20.58468,20.4110051 20.5474439,20.0999326 C20.1203971,16.5337517 17.5950804,13.6737184 14.2959967,12.6922596 Z M7.73760676,8.17268897 C7.73760676,5.94605535 9.54910645,4.13455569 11.77574,4.13455569 C14.0023737,4.13455569 15.8138733,5.94605538 15.8138733,8.17268897 C15.8138733,10.3993226 14.0023736,12.2108223 11.77574,12.2108223 C9.54910645,12.2108223 7.73760676,10.3993226 7.73760676,8.17268897 Z" fill="#666666" fill-rule="nonzero"></path>
            </g>
        </g>
    </g>
</svg>