<?xml version="1.0" encoding="UTF-8"?>
<svg width="24px" height="24px" viewBox="0 0 24 24" version="1.1" xmlns="http://www.w3.org/2000/svg" xmlns:xlink="http://www.w3.org/1999/xlink">
    <!-- Generator: Sketch 44.1 (41455) - http://www.bohemiancoding.com/sketch -->
    <title>我的fill</title>
    <desc>Created with Sketch.</desc>
    <defs>
        <linearGradient x1="0%" y1="100%" x2="73.1662898%" y2="12.0884686%" id="linearGradient-1">
            <stop stop-color="#F67361" offset="0%"></stop>
            <stop stop-color="#F7504E" offset="100%"></stop>
        </linearGradient>
    </defs>
    <g id="Page-1" stroke="none" stroke-width="1" fill="none" fill-rule="evenodd">
        <g id="夺宝icon" transform="translate(-152.000000, -64.000000)">
            <g id="我的fill" transform="translate(152.000000, 64.000000)">
                <g id="Rectangle-8-Copy-4" fill="#D8B8B8" fill-opacity="0">
                    <rect x="0" y="0" width="24" height="24"></rect>
                </g>
                <path d="M14.2959967,12.6922596 C14.7078631,12.461786 15.090526,12.1732231 15.4334114,11.830315 C16.4104,10.8533264 16.9484517,9.5543509 16.9484517,8.17268897 C16.9484517,6.79102704 16.4104,5.49202888 15.4334114,4.51504028 C14.4564002,3.53805168 13.1574247,3 11.7757628,3 C10.3941008,3 9.09510266,3.5380517 8.11811406,4.51504028 C7.14110277,5.49202888 6.60305107,6.79100436 6.60305107,8.17268897 C6.60305107,9.55437358 7.14110277,10.8533491 8.11811406,11.830315 C8.46099948,12.1732004 8.84366243,12.461786 9.25552884,12.6922369 C5.95642242,13.6737184 3.43110567,16.5337517 3.0040816,20.0999552 C2.96682279,20.4110277 3.18880997,20.6933959 3.49990514,20.7306547 C3.8110457,20.7680043 19.7003166,20.7347392 19.983479,20.7347392 C20.0059658,20.7347165 20.0287251,20.7333777 20.0516431,20.7306321 C20.3627156,20.6933733 20.58468,20.4110051 20.5474439,20.0999326 C20.1203971,16.5337517 17.5950804,13.6737184 14.2959967,12.6922596 Z" fill="url(#linearGradient-1)" fill-rule="nonzero"></path>
            </g>
        </g>
    </g>
</svg>