<?xml version="1.0" encoding="UTF-8"?>
<svg width="24px" height="24px" viewBox="0 0 24 24" version="1.1" xmlns="http://www.w3.org/2000/svg" xmlns:xlink="http://www.w3.org/1999/xlink">
    <!-- Generator: Sketch 44.1 (41455) - http://www.bohemiancoding.com/sketch -->
    <title>风云榜</title>
    <desc>Created with Sketch.</desc>
    <defs></defs>
    <g id="Page-1" stroke="none" stroke-width="1" fill="none" fill-rule="evenodd">
        <g id="夺宝icon" transform="translate(-64.000000, -20.000000)">
            <g id="风云榜" transform="translate(64.000000, 20.000000)">
                <rect id="Rectangle-8-Copy" fill-opacity="0" fill="#D8B8B8" x="0" y="0" width="24" height="24"></rect>
                <g transform="translate(1.000000, 1.000000)" fill="#666666">
                    <path d="M10.5200195,5.50952148 L17.5200195,5.50952148 L17.5200195,5.50952148 C17.7961619,5.50952148 18.0200195,5.73337911 18.0200195,6.00952148 L18.0200195,6.00952148 C18.0200195,6.28566386 17.7961619,6.50952148 17.5200195,6.50952148 L10.5200195,6.50952148 C10.2438772,6.50952148 10.0200195,6.28566386 10.0200195,6.00952148 C10.0200195,5.73337911 10.2438772,5.50952148 10.5200195,5.50952148 Z M10.5,15.505127 L17.5,15.505127 L17.5,15.505127 C17.7761424,15.505127 18,15.7289846 18,16.005127 L18,16.005127 C18,16.2812693 17.7761424,16.505127 17.5,16.505127 L10.5,16.505127 C10.2238576,16.505127 10,16.2812693 10,16.005127 C10,15.7289846 10.2238576,15.505127 10.5,15.505127 Z M10.4954834,10.4928589 L17.4954834,10.4928589 L17.4954834,10.4928589 C17.7716258,10.4928589 17.9954834,10.7167165 17.9954834,10.9928589 L17.9954834,10.9928589 C17.9954834,11.2690013 17.7716258,11.4928589 17.4954834,11.4928589 L10.4954834,11.4928589 C10.219341,11.4928589 9.9954834,11.2690013 9.9954834,10.9928589 C9.9954834,10.7167165 10.219341,10.4928589 10.4954834,10.4928589 Z M6,7 L4.8244295,7.61803399 L5.04894348,6.30901699 L4.09788697,5.38196601 L5.41221475,5.19098301 L6,4 L6.58778525,5.19098301 L7.90211303,5.38196601 L6.95105652,6.30901699 L7.1755705,7.61803399 L6,7 Z M6,17 L4.8244295,17.618034 L5.04894348,16.309017 L4.09788697,15.381966 L5.41221475,15.190983 L6,14 L6.58778525,15.190983 L7.90211303,15.381966 L6.95105652,16.309017 L7.1755705,17.618034 L6,17 Z M6,12 L4.8244295,12.618034 L5.04894348,11.309017 L4.09788697,10.381966 L5.41221475,10.190983 L6,9 L6.58778525,10.190983 L7.90211303,10.381966 L6.95105652,11.309017 L7.1755705,12.618034 L6,12 Z" id="Combined-Shape"></path>
                    <path d="M2.5,2 C2.22385763,2 2,2.22385763 2,2.5 L2,19.5 C2,19.7761424 2.22385763,20 2.5,20 L19.5,20 C19.7761424,20 20,19.7761424 20,19.5 L20,2.5 C20,2.22385763 19.7761424,2 19.5,2 L2.5,2 Z M2.5,0.9 L19.5,0.9 C20.3836556,0.9 21.1,1.6163444 21.1,2.5 L21.1,19.5 C21.1,20.3836556 20.3836556,21.1 19.5,21.1 L2.5,21.1 C1.6163444,21.1 0.9,20.3836556 0.9,19.5 L0.9,2.5 C0.9,1.6163444 1.6163444,0.9 2.5,0.9 Z" id="Rectangle-31" fill-rule="nonzero"></path>
                </g>
            </g>
        </g>
    </g>
</svg>