<?xml version="1.0" encoding="UTF-8"?>
<svg width="24px" height="24px" viewBox="0 0 24 24" version="1.1" xmlns="http://www.w3.org/2000/svg" xmlns:xlink="http://www.w3.org/1999/xlink">
    <!-- Generator: Sketch 44.1 (41455) - http://www.bohemiancoding.com/sketch -->
    <title>首页fill</title>
    <desc>Created with Sketch.</desc>
    <defs>
        <linearGradient x1="21.6036699%" y1="82.8866982%" x2="76.3596381%" y2="12.5963683%" id="linearGradient-1">
            <stop stop-color="#F67361" offset="0%"></stop>
            <stop stop-color="#F7504E" offset="100%"></stop>
        </linearGradient>
    </defs>
    <g id="Page-1" stroke="none" stroke-width="1" fill="none" fill-rule="evenodd">
        <g id="夺宝icon" transform="translate(-20.000000, -64.000000)">
            <g id="夺宝fill" transform="translate(20.000000, 64.000000)">
                <rect id="Rectangle-8-Copy-5" fill-opacity="0" fill="#D8B8B8" x="0" y="0" width="24" height="24"></rect>
                <g transform="translate(1.000000, 3.000000)" id="Combined-Shape" fill-rule="nonzero" fill="url(#linearGradient-1)">
                    <path d="M19.4143977,5.57298646 C20.8011404,5.57298643 21.9689237,6.59479685 21.9689237,7.90855308 C21.9689237,7.98153954 21.9689237,8.20049892 21.8959373,8.49244475 C21.0930862,13.5285103 16.4219529,17.3238061 11.0209551,17.3238061 C5.61995725,17.3238061 1.75636177,13.4695842 0.072986459,8.4194583 C0,8.20049892 0,7.76258016 0,7.76258016 C0.0729864262,6.52181039 1.16778331,5.5 2.48153954,5.5 C2.77348538,5.5 3.13841767,5.57298646 3.43036351,5.71895938 C4.0629128,6.01090519 4.52516036,6.20553574 4.8171062,6.30285102 C6.78774052,7.03271561 8.83136134,7.3976479 10.9479686,7.3976479 C13.0645759,7.39764787 14.2717748,7.47854597 17.078831,6.30285102 C17.2836593,6.21706166 17.6972493,6.04675993 18.3196009,5.79194584 C18.6845331,5.64597292 19.0494654,5.57298646 19.4143977,5.57298646 Z M11.0363498,0.0641973586 C13.388519,0.0641973586 14.8944557,1.00392747 16.2783463,2.22701948 C17.2480993,3.08409388 17.2401987,4.21219816 17.2401987,4.22442546 C17.2401987,4.73533064 17.0620318,5.20843416 16.2183883,5.46519523 C15.3747448,5.7219563 13.5365598,6.19505982 11.0363498,6.19505982 C8.53613986,6.19505982 6.2182112,5.72013165 5.56236549,5.39220877 C4.90651978,5.06428589 4.83250093,4.46419736 4.83250093,4.29741192 C4.83250093,3.86995297 4.87961658,3.31495673 5.93520357,2.21176134 C7.00099551,1.09790073 8.68418063,0.0641973586 11.0363498,0.0641973586 Z"></path>
                </g>
            </g>
        </g>
    </g>
</svg>