<?xml version="1.0" encoding="UTF-8"?>
<svg width="24px" height="24px" viewBox="0 0 24 24" version="1.1" xmlns="http://www.w3.org/2000/svg" xmlns:xlink="http://www.w3.org/1999/xlink">
    <!-- Generator: Sketch 44.1 (41455) - http://www.bohemiancoding.com/sketch -->
    <title>夺宝icon</title>
    <desc>Created with Sketch.</desc>
    <defs></defs>
    <g id="Page-1" stroke="none" stroke-width="1" fill="none" fill-rule="evenodd">
        <g id="夺宝icon" transform="translate(-20.000000, -20.000000)">
            <g id="夺宝" transform="translate(20.000000, 20.000000)">
                <rect id="Rectangle-8" fill-opacity="0" fill="#D8B8B8" x="0" y="0" width="24" height="24"></rect>
                <g transform="translate(1.000000, 3.000000)" stroke="#666666" stroke-width="1.1" fill-rule="nonzero">
                    <path d="M19.4143977,6.12298646 C19.1208171,6.12298646 18.8250221,6.18214546 18.528,6.30093481 C17.9070144,6.55518965 17.4943225,6.72512159 17.2913067,6.81015183 C15.5838785,7.52528343 14.37394,7.8277293 13.0463178,7.91468059 C12.5768513,7.94542783 12.2175273,7.95041375 11.3212766,7.9482382 C11.1372581,7.94779499 11.1372581,7.94779499 10.9479686,7.9476479 C8.76628047,7.9476479 6.65797204,7.57116425 4.64318093,6.82462683 C4.32720572,6.71930176 3.84953887,6.51817888 3.18439603,6.21089433 C2.98575074,6.11157169 2.70867815,6.05 2.48153954,6.05 C1.46479344,6.05 0.605257191,6.83937002 0.55,7.76258016 C0.55,7.84130498 0.554746884,7.96947085 0.568261672,8.09110394 C0.57651616,8.16539434 0.587099639,8.22254512 0.594762273,8.24553302 C2.33150366,13.4557572 6.18346323,16.7738061 11.0209551,16.7738061 C16.1562493,16.7738061 20.5932932,13.1700099 21.3623589,8.35905016 C21.4070794,8.18016808 21.4189238,8.04988023 21.4189237,7.90855308 C21.4189237,6.92767577 20.5267681,6.12298643 19.4143977,6.12298646 Z" id="Shape-Copy"></path>
                    <path d="M11.0363498,0.614197359 C9.10232526,0.614197359 7.51109302,1.36034829 6.33259242,2.59200087 C5.54981333,3.41008436 5.38250093,3.79433024 5.38250093,4.29741192 C5.38250093,4.49627007 5.50130908,4.74676186 5.80833298,4.90027382 C6.51456001,5.25338736 8.90298333,5.64505982 11.0363498,5.64505982 C13.0163311,5.64505982 14.6688275,5.36189213 16.0582494,4.93902459 C16.5670951,4.78415851 16.6901987,4.60833518 16.6901997,4.22338252 L16.6902009,4.22275696 C16.6903378,4.15784742 16.6788907,4.03609347 16.6415935,3.87140498 C16.5789092,3.59461763 16.4652562,3.31830469 16.288914,3.06165597 C16.1844596,2.90963279 16.0602204,2.76825951 15.9141176,2.63913291 C14.3312414,1.24017608 12.9697615,0.614197359 11.0363498,0.614197359 Z" id="Shape-Copy-2"></path>
                </g>
            </g>
        </g>
    </g>
</svg>